<svg width="71" height="35" viewBox="0 0 71 35" fill="none" xmlns="http://www.w3.org/2000/svg">
<path d="M1.836 27V8.1H5.292V24.3H13.662V27H1.836ZM22.4456 27.324C21.1496 27.324 19.9796 27.027 18.9356 26.433C17.9096 25.839 17.0906 25.02 16.4786 23.976C15.8846 22.914 15.5876 21.69 15.5876 20.304C15.5876 18.918 15.8936 17.703 16.5056 16.659C17.1176 15.597 17.9366 14.769 18.9626 14.175C20.0066 13.581 21.1766 13.284 22.4726 13.284C23.7506 13.284 24.9026 13.581 25.9286 14.175C26.9726 14.769 27.7916 15.597 28.3856 16.659C28.9976 17.703 29.3036 18.918 29.3036 20.304C29.3036 21.69 28.9976 22.914 28.3856 23.976C27.7916 25.02 26.9726 25.839 25.9286 26.433C24.8846 27.027 23.7236 27.324 22.4456 27.324ZM22.4456 24.327C23.3456 24.327 24.1286 23.994 24.7946 23.328C25.4606 22.644 25.7936 21.636 25.7936 20.304C25.7936 18.972 25.4606 17.973 24.7946 17.307C24.1286 16.623 23.3546 16.281 22.4726 16.281C21.5546 16.281 20.7626 16.623 20.0966 17.307C19.4486 17.973 19.1246 18.972 19.1246 20.304C19.1246 21.636 19.4486 22.644 20.0966 23.328C20.7626 23.994 21.5456 24.327 22.4456 24.327ZM37.4157 27.324C35.7417 27.324 34.4457 26.802 33.5277 25.758C32.6277 24.714 32.1777 23.184 32.1777 21.168V13.608H35.6067V20.844C35.6067 21.996 35.8407 22.878 36.3087 23.49C36.7767 24.102 37.5147 24.408 38.5227 24.408C39.4767 24.408 40.2597 24.066 40.8717 23.382C41.5017 22.698 41.8167 21.744 41.8167 20.52V13.608H45.2727V27H42.2217L41.9517 24.732C41.5377 25.524 40.9347 26.154 40.1427 26.622C39.3687 27.09 38.4597 27.324 37.4157 27.324ZM50.6834 11.529C50.0534 11.529 49.5314 11.34 49.1174 10.962C48.7214 10.584 48.5234 10.107 48.5234 9.531C48.5234 8.955 48.7214 8.487 49.1174 8.127C49.5314 7.749 50.0534 7.56 50.6834 7.56C51.3134 7.56 51.8264 7.749 52.2224 8.127C52.6364 8.487 52.8434 8.955 52.8434 9.531C52.8434 10.107 52.6364 10.584 52.2224 10.962C51.8264 11.34 51.3134 11.529 50.6834 11.529ZM48.9554 27V13.608H52.4114V27H48.9554ZM62.5257 27.324C61.1757 27.324 59.9787 27.036 58.9347 26.46C57.8907 25.884 57.0717 25.074 56.4777 24.03C55.8837 22.986 55.5867 21.78 55.5867 20.412C55.5867 19.026 55.8747 17.793 56.4507 16.713C57.0447 15.633 57.8547 14.796 58.8807 14.202C59.9247 13.59 61.1487 13.284 62.5527 13.284C63.8667 13.284 65.0277 13.572 66.0357 14.148C67.0437 14.724 67.8267 15.516 68.3847 16.524C68.9607 17.514 69.2487 18.621 69.2487 19.845C69.2487 20.043 69.2397 20.25 69.2217 20.466C69.2217 20.682 69.2127 20.907 69.1947 21.141H59.0157C59.0877 22.185 59.4477 23.004 60.0957 23.598C60.7617 24.192 61.5627 24.489 62.4987 24.489C63.2007 24.489 63.7857 24.336 64.2537 24.03C64.7397 23.706 65.0997 23.292 65.3337 22.788H68.8437C68.5917 23.634 68.1687 24.408 67.5747 25.11C66.9987 25.794 66.2787 26.334 65.4147 26.73C64.5687 27.126 63.6057 27.324 62.5257 27.324ZM62.5527 16.092C61.7067 16.092 60.9597 16.335 60.3117 16.821C59.6637 17.289 59.2497 18.009 59.0697 18.981H65.7387C65.6847 18.099 65.3607 17.397 64.7667 16.875C64.1727 16.353 63.4347 16.092 62.5527 16.092Z" fill="white"/>
</svg>
